PathFileType	4	(X/Y/Z)	../Python\walking\Walking05\task.trc
DataRate	CameraRate	NumFrames	NumMarkers	Units	OrigDataRate	OrigDataStartFrame	OrigNumFrames
200.000000	200.000000	4	30	mm	200.000000	302	605
Frame#	Time	C7			RBAK			CLAV			STRN			T10			RASI			RPSI			LPSI			LASI			PE01			PE02			PE03			RTH1			RTH2			RTH3			RTB1			RTB2			RTB3			RHEE			RD5M			RTOE			LTH1			LTH2			LTH3			LTB1			LTB2			LTB3			LHEE			LTOE			LD5M			
		X1	Y1	Z1	X2	Y2	Z2	X3	Y3	Z3	X4	Y4	Z4	X5	Y5	Z5	X6	Y6	Z6	X7	Y7	Z7	X8	Y8	Z8	X9	Y9	Z9	X10	Y10	Z10	X11	Y11	Z11	X12	Y12	Z12	X13	Y13	Z13	X14	Y14	Z14	X15	Y15	Z15	X16	Y16	Z16	X17	Y17	Z17	X18	Y18	Z18	X19	Y19	Z19	X20	Y20	Z20	X21	Y21	Z21	X22	Y22	Z22	X23	Y23	Z23	X24	Y24	Z24	X25	Y25	Z25	X26	Y26	Z26	X27	Y27	Z27	X28	Y28	Z28	X29	Y29	Z29	X30	Y30	Z30	

303	1.51	848.6336059570317	1526.178833007813	197.5535125732423	836.949096679688	1441.734619140625	372.0200805664064	964.291381835938	1435.95556640625	204.2581176757814	1016.863525390625	1243.522827148438	208.055633544922	790.374877929688	1270.327026367188	208.4478759765626	1002.191162109375	1043.043701171875	358.4526367187501	834.9809570312505	1081.81787109375	271.318328857422	830.0275878906255	1073.553955078125	171.6599884033204	998.4812011718755	1016.429748535157	82.71625518798831	839.4218750000005	1124.649780273438	217.1576080322267	828.841674804688	1067.34130859375	249.545135498047	824.283325195313	1062.850341796875	198.5552825927736	966.8378295898442	780.4193725585942	388.9902038574221	909.6245727539067	755.583679199219	389.9848327636721	929.1348266601567	712.6067504882815	371.8193664550782	927.0590820312505	370.522186279297	312.4748840332032	884.0620727539067	326.6316833496095	313.4533996582032	918.2778320312505	292.9145812988282	299.230194091797	824.9882202148442	28.79890251159669	204.3515930175782	982.633666992188	16.77498054504395	287.2166748046876	1042.039672851563	31.88832283020021	242.294647216797	973.510864257813	705.5822753906252	61.44561386108401	965.922729492188	662.6685791015627	86.03118133544925	1019.204650878907	641.2117919921877	63.44359207153323	955.4922485351567	429.5692138671877	71.95552062988284	909.0653686523442	418.1259460449221	86.31558990478518	920.3663940429692	358.4808654785157	72.31011199951175	694.959655761719	220.3259887695314	136.7531433105469	834.3915405273442	75.23868560791018	104.932960510254	795.680786132813	94.60220336914065	67.66253662109378	
304	1.515	854.8920288085942	1526.465209960938	197.9516906738282	843.3007812500005	1442.285400390625	372.6136474609376	970.3679809570317	1436.069091796875	204.664764404297	1022.648010253907	1243.607788085938	208.7911987304689	796.2611694335942	1270.725219726563	209.202850341797	1007.308288574219	1042.7490234375	359.4326171875001	840.4575195312505	1081.802734375	271.3109436035157	835.851196289063	1073.963623046875	171.5966491699219	1004.683715820313	1017.1865234375	83.71450805664065	845.1433715820317	1124.864868164063	217.3825073242189	834.4104614257817	1067.4130859375	249.4706115722657	830.017211914063	1063.167114257813	198.440643310547	970.7833862304692	779.9296875000005	389.2043762207034	913.493774414063	755.4097900390627	389.9357604980471	932.797241210938	712.3367919921877	371.8214416503907	929.078491210938	370.3894958496095	312.2027893066407	885.8052368164067	326.7561645507814	313.1372985839845	919.8420410156255	292.8223571777345	298.9636840820314	825.128784179688	29.05825996398927	204.0907745361329	982.6318359375005	16.75053024291993	287.2542419433595	1042.256103515625	31.77863883972169	242.3412322998048	982.9404296875005	706.9688720703127	61.19305419921878	975.520141601563	663.8056640625002	85.39555358886722	1029.376098632813	643.1427001953127	63.44569015502933	968.2397460937505	429.1318969726565	72.14804840087893	921.9774780273442	416.8360900878909	86.34343719482425	934.5549316406255	357.3642578125001	72.85054779052737	711.5630493164065	214.3365478515626	136.9710693359376	855.3410034179692	73.31407165527347	105.6659317016602	816.139038085938	91.55092620849612	68.26753234863284	
305	1.52	861.1528930664067	1526.715942382813	198.3499450683595	849.6416015625005	1442.798583984375	373.1991577148439	976.4460449218755	1436.14990234375	205.0809936523439	1028.436157226563	1243.661499023438	209.5319976806642	802.1518554687505	1271.092529296875	209.9353485107423	1012.440673828125	1042.429565429688	360.3601989746095	845.9425659179692	1081.763671875	271.2990722656251	841.6773071289067	1074.329223632813	171.5343017578126	1010.872131347657	1017.895629882813	84.67129516601565	850.8664550781255	1125.044799804688	217.5942993164064	839.9845581054692	1067.456420898438	249.3919372558595	835.7570190429692	1063.445190429688	198.325164794922	974.7050781250005	779.4399414062505	389.4172668457034	917.340942382813	755.239440917969	389.892272949219	936.4318847656255	712.0701293945315	371.8296203613282	931.0858764648442	370.2613830566407	311.943328857422	887.5451660156255	326.8817443847657	312.8481750488282	921.3981933593755	292.7387084960939	298.7088012695314	825.2656860351567	29.32136726379396	203.8439178466798	982.6304321289067	16.72757720947266	287.2897338867189	1042.45654296875	31.6778964996338	242.384490966797	992.359985351563	708.3649902343752	60.88883209228518	985.0827636718755	664.954772949219	84.6907653808594	1039.510009765625	645.0764160156252	63.43614196777347	980.9379882812505	428.5420227050784	72.31769561767581	934.8555297851567	415.3707275390627	86.32659149169925	948.7631225585942	356.1019592285157	73.41129302978518	728.415710449219	208.1187286376954	137.2438201904297	876.4408569335942	71.32195281982425	106.4494323730469	836.7739868164067	88.39791107177737	68.92647552490237	
306	1.525	867.4170532226567	1526.93017578125	198.7482147216798	855.9733276367192	1443.2724609375	373.7764892578126	982.5267944335942	1436.197021484375	205.5055541992189	1034.22900390625	1243.6826171875	210.2742919921876	808.0475463867192	1271.427978515625	210.6454162597657	1017.591369628907	1042.084228515625	361.2327270507814	851.4386596679692	1081.702026367188	271.2847290039064	847.507446289063	1074.651000976563	171.4749603271485	1017.046325683594	1018.554931640625	85.58230590820315	856.5925292968755	1125.190063476563	217.7940368652345	845.5659179687505	1067.472290039063	249.3113861083986	841.5045776367192	1063.684692382813	198.2112426757814	978.606811523438	778.9509887695317	389.6272888183596	921.1677856445317	755.0734863281252	389.8540039062502	940.0413208007817	711.8076171875002	371.8446655273439	933.0791015625005	370.1380615234376	311.6970214843751	889.2790527343755	327.0089416503907	312.5853881835939	922.9435424804692	292.664031982422	298.465789794922	825.3977050781255	29.5885467529297	203.6116638183595	982.6291503906255	16.70615386962891	287.3234252929689	1042.640747070313	31.58588981628419	242.4246520996095	1001.759094238282	709.7625732421877	60.53993225097659	994.602905273438	666.1091918945315	83.92689514160159	1049.5947265625	647.0036621093752	63.42116546630862	993.586303710938	427.8046569824221	72.47126007080081	947.701049804688	413.7346801757815	86.27334594726565	962.988647460938	354.7037658691407	73.99092102050784	745.5239257812502	201.6923217773439	137.5756530761719	897.6877441406255	69.28491973876956	107.2712936401368	857.5817871093755	85.1662521362305	69.63147735595706	
